# xmcd
#
# Track frame offsets: 
#        150
#        14300
#        26327
#        39797
#        53105
#        64167
#        84380
#        95475
#        107315
#        122307
#
# Disc length: 1810 seconds
#
# Revision: 2
# Processed by: cddbd v1.4PL0 Copyright (c) Steve Scherf et al.
# Submitted via: ExactAudioCopy v0.90a11
#
DISCID=6607100a
DTITLE=Vern Gosdin - Vern Gosdin Live (Silver Eagle Cross Country)
DYEAR=1900
DGENRE=
TTITLE0=Break My Mind
TTITLE1=Dream Of Me
TTITLE2=Today My World Slipped Away
TTITLE3=Mother Country Music
TTITLE4=Don't Ever Leave Me
TTITLE5=The First Time Ever
TTITLE6=Till The End
TTITLE7=Friday Night Feeling
TTITLE8=If You're Gonna Do Me Wrong (Do It Right)
TTITLE9=Way Down Deep
EXTD=
EXTT0=
EXTT1=
EXTT2=
EXTT3=
EXTT4=
EXTT5=
EXTT6=
EXTT7=
EXTT8=
EXTT9=
PLAYORDER=
